<?xml version="1.0" encoding="UTF-8" standalone="no"?>
<svg width="14px" height="14px" viewBox="0 0 14 14" version="1.1" xmlns="http://www.w3.org/2000/svg" xmlns:xlink="http://www.w3.org/1999/xlink" xmlns:sketch="http://www.bohemiancoding.com/sketch/ns">
    <!-- Generator: Sketch 3.4.4 (17249) - http://www.bohemiancoding.com/sketch -->
    <title>Facebook Copy</title>
    <desc>Created with Sketch.</desc>
    <defs></defs>
    <g id="Website" stroke="none" stroke-width="1" fill="none" fill-rule="evenodd" sketch:type="MSPage">
        <g id="01---Home-Copy-10" sketch:type="MSArtboardGroup" transform="translate(-966.000000, -1383.000000)" fill="#FFFFFF" opacity="0.354594216">
            <path d="M980,1383.875 C980,1383.39648 979.603516,1383 979.125,1383 L966.875,1383 C966.396484,1383 966,1383.39648 966,1383.875 L966,1396.125 C966,1396.60352 966.396484,1397 966.875,1397 L973.485352,1397 L973.485352,1391.55859 L971.735352,1391.55859 L971.735352,1389.54199 L973.485352,1389.54199 L973.485352,1387.79883 C973.485352,1386.20605 974.456055,1385.13965 976.376953,1385.13965 C977.224609,1385.13965 977.8125,1385.23535 977.8125,1385.23535 L977.8125,1387.05371 L976.5,1387.05371 C975.918945,1387.05371 975.625,1387.38184 975.625,1387.95605 L975.625,1389.54199 L977.668945,1389.54199 L977.375,1391.55859 L975.625,1391.55859 L975.625,1397 L979.125,1397 C979.603516,1397 980,1396.60352 980,1396.125 L980,1383.875 Z" id="Facebook-Copy" sketch:type="MSShapeGroup"></path>
        </g>
    </g>
</svg>
