<?xml version="1.0" encoding="UTF-8" standalone="no"?>
<svg width="14px" height="12px" viewBox="0 0 14 12" version="1.1" xmlns="http://www.w3.org/2000/svg" xmlns:xlink="http://www.w3.org/1999/xlink" xmlns:sketch="http://www.bohemiancoding.com/sketch/ns">
    <!-- Generator: Sketch 3.4.4 (17249) - http://www.bohemiancoding.com/sketch -->
    <title>twitter copy</title>
    <desc>Created with Sketch.</desc>
    <defs></defs>
    <g id="Website" stroke="none" stroke-width="1" fill="none" fill-rule="evenodd" sketch:type="MSPage">
        <g id="01---Home-Copy-10" sketch:type="MSArtboardGroup" transform="translate(-931.000000, -1384.000000)" fill="#FFFFFF" opacity="0.354594216">
            <path d="M945,1385.50879 C944.480469,1385.74121 943.933594,1385.89844 943.345703,1385.9668 C943.947266,1385.61133 944.398438,1385.04395 944.610352,1384.37402 C944.063477,1384.70215 943.441406,1384.94141 942.798828,1385.07129 C942.258789,1384.52441 941.513672,1384.16895 940.686523,1384.16895 C939.100586,1384.16895 937.822266,1385.44727 937.822266,1387.0332 C937.822266,1387.25879 937.835938,1387.49121 937.883789,1387.69629 C935.504883,1387.56641 933.399414,1386.48633 931.970703,1384.75 C931.731445,1385.17383 931.581055,1385.61133 931.581055,1386.14453 C931.581055,1387.12891 932.086914,1388.00391 932.866211,1388.52344 C932.394531,1388.50977 931.957031,1388.37988 931.567383,1388.16797 L931.567383,1388.20215 C931.567383,1389.59668 932.558594,1390.75879 933.871094,1391.01855 C933.625,1391.08691 933.365234,1391.12109 933.105469,1391.12109 C932.927734,1391.12109 932.75,1391.10059 932.572266,1391.06641 C932.927734,1392.20117 934.000977,1393.04883 935.245117,1393.0625 C934.274414,1393.8418 933.023438,1394.42285 931.683594,1394.42285 C931.451172,1394.42285 931.225586,1394.40918 931,1394.375 C932.264648,1395.18848 933.789062,1395.54395 935.40918,1395.54395 C940.686523,1395.54395 943.571289,1391.16895 943.571289,1387.375 L943.571289,1386.99902 C944.125,1386.5957 944.610352,1386.09668 945,1385.50879 L945,1385.50879 Z" id="twitter-copy" sketch:type="MSShapeGroup"></path>
        </g>
    </g>
</svg>